<?xml version="1.0" encoding="utf-8"?>
<!-- Uploaded to: SVG Repo, www.svgrepo.com, Generator: SVG Repo Mixer Tools -->
<svg width="800px" height="800px" viewBox="0 0 1024 1024" class="icon"  version="1.1" xmlns="http://www.w3.org/2000/svg"><path d="M993.763 493.538v35c0 13.331-6.04 26.664-18.134 37.137-140.15 121.422-280.351 242.795-420.488 364.219-11.816 10.237-25.814 15.501-42.455 15.501v-35c16.641 0 30.639-5.264 42.455-15.501C695.278 773.47 835.474 652.092 975.629 530.677c12.094-10.475 18.134-23.803 18.134-37.139z" fill="#67C0DC" /><path d="M30.239 528.367v-3.5-1.75-3.5-3.5-1.75-3.5-3.5-1.75-3.5-3.5-1.75-3.5c0 14.707 6.701 29.313 19.038 40.019 138.449 120.064 277.049 239.996 415.562 360.02 13.002 11.26 28.74 16.466 47.853 16.994v35c-19.109-0.528-34.851-5.734-47.853-16.994C326.325 808.382 187.725 688.45 49.276 568.386c-12.337-10.705-19.037-25.312-19.037-40.019z" fill="#67C0DC" /><path d="M510.786 76.601c16.263 0 32.546 5.362 44.946 16.097 139.949 121.188 279.9 242.376 419.819 363.586 24.24 20.995 24.295 53.413 0.078 74.397-140.15 121.42-280.35 242.796-420.488 364.217-11.816 10.239-25.813 15.502-42.454 15.502-19.109-0.528-34.851-5.734-47.853-16.994C326.323 773.382 187.723 653.45 49.273 533.386c-19.58-16.988-24.96-43.81-11.895-65.251 3.919-6.438 8.669-11.829 14.465-16.849 138.109-119.551 276.18-239.133 414.263-358.718 12.297-10.641 28.479-15.967 44.68-15.967z" fill="#BAE2F1" /><path d="M450.735 354.083c-24.53 9.566-44.57 22.308-59.998 38.222 0.147-6.566 0.206-11.336 0.212-17.017 15.398-15.814 35.369-28.483 59.786-38.006 19.368-7.563 40.013-10.767 61.371-10.843v0h0.053c57.782 0 109.767 27.086 137.618 70.225v16.8c-27.852-43.138-79.833-70.224-137.618-70.224-21.376 0.068-42.041 3.272-61.424 10.843z" fill="#529FBD" /><path d="M669.88 462.767v16.8c0-15.397-2.903-30.539-9.161-45.401-23.153-55-82.007-90.928-148.56-90.928-8.719 0.029-17.313 0.578-25.755 1.732v-16.8c8.441-1.154 17.038-1.703 25.755-1.732 66.553 0 125.406 35.928 148.56 90.927 6.258 14.862 9.161 30.006 9.161 45.402" fill="#529FBD" /><path d="M486.405 328.171v16.8c-11.296 1.544-22.314 4.172-32.961 8.083v-16.8c10.644-3.911 21.661-6.539 32.961-8.083" fill="#529FBD" /><path d="M453.444 336.255v16.8c-0.904 0.333-1.808 0.675-2.708 1.026-12.351 4.817-23.563 10.44-33.625 16.866v-16.8c10.061-6.426 21.271-12.048 33.625-16.866 0.9-0.351 1.803-0.693 2.708-1.026" fill="#529FBD" /><path d="M417.113 354.146v16.8c-12.566 8.028-23.33 17.31-32.263 27.849v-16.8c8.934-10.537 19.697-19.82 32.263-27.849" fill="#529FBD" /><path d="M361.629 439.358v-16.8c6.404-18.042 16.203-33.799 29.321-47.27-0.001 1.201-0.004 4.86-0.07 9.521-0.025 1.425-0.046 2.851-0.077 4.274-0.005 0.322-0.014 0.752-0.021 1.073-0.015 0.716-0.048 1.432-0.048 2.148-13.008 13.425-22.735 29.108-29.105 47.054z" fill="#529FBD" /><path d="M417.113 354.146v16.8c-12.566 8.028-23.33 17.31-32.263 27.849v-16.8c8.934-10.537 19.697-19.82 32.263-27.849" fill="#529FBD" /><path d="M384.851 381.996v16.8c-13.795 16.283-23.223 35.56-28.16 57.84a112.236 112.236 0 0 0-2.479 17.619v-16.8a112.827 112.827 0 0 1 2.479-17.619c4.936-22.279 14.362-41.559 28.16-57.84" fill="#529FBD" /><path d="M512.182 380.618h-0.052c0-6.241-0.005-11.814-0.052-16.8h0.104c55.351 0.091 101.95 33.918 113.714 78.838v16.801c-11.764-44.922-58.364-78.748-113.714-78.839z" fill="#529FBD" /><path d="M628.758 465.038v16.8c0.099-55.583-52.348-101.115-116.578-101.22-6.164 0-12.217 0.419-18.128 1.226v-16.8a134 134 0 0 1 18.128-1.227c64.232 0.106 116.679 45.639 116.578 101.221" fill="#529FBD" /><path d="M355.102 465.386v-0.063-0.067-0.068-0.074-0.07-0.068-0.065-0.062-1.9-2.013-2.09-2.13-2.129-2.09-2.013-1.899c0.411-2.914 0.939-5.833 1.59-8.75a145.287 145.287 0 0 1 4.937-17.278v16.8a145.303 145.303 0 0 0-4.937 17.279 112.199 112.199 0 0 0-1.59 8.75z" fill="#529FBD" /><path d="M384.851 381.996v16.8c-13.795 16.283-23.223 35.56-28.16 57.84a112.236 112.236 0 0 0-2.479 17.619v-16.8a112.827 112.827 0 0 1 2.479-17.619c4.936-22.279 14.362-41.559 28.16-57.84" fill="#529FBD" /><path d="M649.777 413.463c-0.018-0.062 0-0.152 0-0.216v-0.23-0.238-0.242-0.24-0.237-0.228-0.216-1.746-1.85-1.922-1.958-1.954-1.924-1.852-1.746a133.725 133.725 0 0 1 10.941 20.704c4.114 9.766 6.777 19.656 8.121 29.658 0 5.057-0.003 10.116-0.004 15.17 0.001-5.055 0.004-10.113 0.004-15.17a117.79 117.79 0 0 1 1.04 15.755v16.8c0.003-15.4-2.902-30.547-9.161-45.413a133.736 133.736 0 0 0-10.941-20.705z" fill="#529FBD" /><path d="M669.88 462.767v16.8c0-15.397-2.903-30.539-9.161-45.401-23.153-55-82.007-90.928-148.56-90.928-8.719 0.029-17.313 0.578-25.755 1.732v-16.8c8.441-1.154 17.038-1.703 25.755-1.732 66.553 0 125.406 35.928 148.56 90.927 6.258 14.862 9.161 30.006 9.161 45.402" fill="#529FBD" /><path d="M355.102 465.386a110.307 110.307 0 0 0-1.087 15.422v-16.8c0.001-5.122 0.362-10.268 1.087-15.422v16.264c0 0.178 0.011 0.358 0 0.536z" fill="#529FBD" /><path d="M384.851 381.996v16.8c-13.795 16.283-23.223 35.56-28.16 57.84a112.236 112.236 0 0 0-2.479 17.619v-16.8a112.827 112.827 0 0 1 2.479-17.619c4.936-22.279 14.362-41.559 28.16-57.84M354.209 457.456v16.8a109.932 109.932 0 0 0-0.197 6.564v-16.8c0-2.187 0.066-4.373 0.197-6.564" fill="#529FBD" /><path d="M512.13 380.618c-64.184 0.026-116.592 45.483-116.673 101.08v-16.8c0.081-55.583 52.46-101.028 116.621-101.081 0.047 4.987 0.052 10.56 0.052 16.801z" fill="#529FBD" /><path d="M628.758 465.038v16.8c0.099-55.583-52.348-101.115-116.578-101.22-6.164 0-12.217 0.419-18.128 1.226v-16.8a134 134 0 0 1 18.128-1.227c64.232 0.106 116.679 45.639 116.578 101.221" fill="#529FBD" /><path d="M494.055 365.044v16.8a129.37 129.37 0 0 0-27.14 6.731v-16.8a129.416 129.416 0 0 1 27.14-6.731M466.915 371.775v16.801c-8.463 3.109-16.42 7.063-23.734 11.735v-16.8c7.312-4.672 15.271-8.626 23.734-11.736M443.18 383.51v16.8c-9.56 6.106-18.016 13.444-25.054 21.736v-16.8c7.039-8.291 15.495-15.629 25.054-21.736M418.126 405.247v16.8c-13.061 15.389-21.234 34.066-22.499 54.272v-16.8c1.266-20.207 9.439-38.883 22.499-54.272" fill="#529FBD" /><path d="M395.628 459.519v16.8a88.987 88.987 0 0 0-0.171 5.383v-16.8c0.003-1.808 0.06-3.602 0.171-5.383" fill="#529FBD" /><path d="M628.758 481.838a87.693 87.693 0 0 0-2.862-22.382v-2.102-2.1-2.1-2.1-2.1-2.1-2.1-2.099a87.648 87.648 0 0 1 2.862 22.382v16.801z" fill="#529FBD" /><path d="M628.758 465.038v16.8c0.099-55.583-52.348-101.115-116.578-101.22-6.164 0-12.217 0.419-18.128 1.226v-16.8a134 134 0 0 1 18.128-1.227c64.232 0.106 116.679 45.639 116.578 101.221" fill="#529FBD" /><path d="M421.402 481.138c-0.011 0.502-0.018 1-0.018 1.497v-16.8c0-0.498 0.007-0.996 0.018-1.497 0.309-13.709 4.56-26.564 11.766-37.736 1.713-1.043 3.022-1.702 4.257-2.134-1.235 0.434-2.544 1.091-4.257 2.134 15.531-24.069 44.794-40.303 77.946-40.305 0.611 0 1.221 0.006 1.835 0.017 50.092 0.906 89.861 35.736 89.841 78.292v16.8c0.021-42.557-39.749-77.387-89.841-78.292a80.247 80.247 0 0 0-1.835-0.019c-48.532 0.005-88.736 34.793-89.712 78.043z m27.023-59.841l-0.244 0.194-0.25 0.202-0.261 0.209-0.262 0.212-0.268 0.222-0.27 0.226-0.271 0.229-0.273 0.231-0.271 0.232-0.267 0.233-0.267 0.231-0.262 0.231-0.257 0.227-0.25 0.219-0.241 0.219-0.232 0.21-0.094 0.087-0.096 0.09-0.1 0.09-0.104 0.097-0.103 0.097-0.107 0.097-0.108 0.101-0.108 0.103-0.108 0.103-0.108 0.1-0.105 0.101-0.105 0.101-0.104 0.099-0.102 0.097-0.098 0.097-0.094 0.09 0.094-0.09 0.098-0.097 0.102-0.097 0.104-0.099 0.105-0.101 0.105-0.101 0.108-0.1 0.108-0.103 0.108-0.103 0.108-0.101 0.107-0.097 0.103-0.097 0.104-0.097 0.1-0.09 0.096-0.09 0.094-0.087 0.232-0.21 0.241-0.219 0.25-0.219 0.257-0.227 0.262-0.231 0.267-0.231 0.267-0.233 0.271-0.232 0.273-0.231 0.271-0.229 0.27-0.226 0.268-0.222 0.262-0.212 0.261-0.209 0.25-0.202 0.244-0.194m-7.978 5.659l-0.179 0.146-0.186 0.145-0.188 0.154-0.196 0.159-0.197 0.159-0.198 0.164-0.201 0.167-0.2 0.168-0.201 0.169-0.195 0.168-0.193 0.168-0.19 0.164-0.188 0.164-0.18 0.16-0.174 0.157-0.167 0.149 0.167-0.149 0.174-0.157 0.18-0.16 0.188-0.164 0.19-0.164 0.193-0.168 0.195-0.168 0.201-0.169 0.2-0.168 0.201-0.167 0.198-0.164 0.197-0.159 0.196-0.159 0.188-0.154 0.186-0.145 0.179-0.146 0.123-0.412 0.128-0.426 0.131-0.44 0.135-0.447 0.14-0.458 0.139-0.464 0.144-0.467 0.144-0.469 0.142-0.469 0.145-0.466 0.142-0.463 0.144-0.455 0.138-0.449 0.135-0.438 0.136-0.422 0.127-0.409-0.127 0.409-0.136 0.422-0.135 0.438-0.138 0.449-0.144 0.455-0.142 0.463-0.145 0.466-0.142 0.469-0.144 0.469-0.144 0.467-0.139 0.464-0.14 0.458-0.135 0.447-0.131 0.44-0.128 0.426-0.123 0.412" fill="#7AC0D6" /><path d="M602.79 464.58v16.8c0-42.543-39.757-77.36-89.841-78.263a80.251 80.251 0 0 0-1.835-0.02c-4.606 0-9.137 0.316-13.565 0.919v-16.8a100.196 100.196 0 0 1 15.4-0.902c50.081 0.906 89.841 35.723 89.841 78.266M497.549 387.216v16.8a97.811 97.811 0 0 0-20.501 5.087v-16.8a97.811 97.811 0 0 1 20.501-5.087M477.048 392.303v16.8a93.78 93.78 0 0 0-18.154 8.982v-16.8a94.066 94.066 0 0 1 18.154-8.982" fill="#7AC0D6" /><path d="M458.895 401.286v16.8c-7.418 4.736-13.997 10.451-19.499 16.93v-16.8c5.501-6.479 12.084-12.194 19.499-16.93" fill="#7AC0D6" /><path d="M439.398 418.216v16.8c-10.348 12.193-16.861 27.096-17.876 43.284v-16.8c1.015-16.191 7.528-31.092 17.876-43.284M421.522 461.5v16.8a72.431 72.431 0 0 0-0.138 4.338v-16.8a74.087 74.087 0 0 1 0.138-4.338" fill="#7AC0D6" /><path d="M602.79 464.579v16.8c0 0.536-0.006 1.075-0.019 1.612-0.998 42.806-41.342 77.45-89.776 77.45-0.507 0-1.007-0.005-1.517-0.014-49.871-0.74-90.092-35.642-90.092-77.789v-16.8c0 42.148 40.22 77.049 90.092 77.789 0.51 0.01 1.01 0.014 1.517 0.014 48.435 0 88.778-34.644 89.776-77.449 0.013-0.54 0.019-1.078 0.019-1.613z" fill="#529FBD" /><path d="M602.79 464.579v16.8a67.67 67.67 0 0 1-0.136 4.326v-16.8c0.058-0.901 0.097-1.809 0.117-2.714 0.013-0.539 0.019-1.077 0.019-1.612M602.654 468.907v16.8c-0.995 15.923-7.435 30.618-17.668 42.688v-16.8c10.234-12.07 16.673-26.766 17.668-42.688M584.986 511.595v16.8c-5.505 6.494-12.104 12.226-19.548 16.98v-16.8c7.443-4.755 14.043-10.486 19.548-16.98M565.438 528.575v16.8a94.374 94.374 0 0 1-18.259 9.033v-16.8a94.26 94.26 0 0 0 18.259-9.033" fill="#529FBD" /><path d="M547.18 537.608v16.8a98.264 98.264 0 0 1-20.592 5.113v-16.8a98.218 98.218 0 0 0 20.592-5.113M526.588 542.722v16.8a100.655 100.655 0 0 1-15.11 0.905c-49.871-0.74-90.092-35.642-90.092-77.789v-16.8c0 42.148 40.22 77.049 90.092 77.789a100.84 100.84 0 0 0 15.11-0.905" fill="#529FBD" /><path d="M628.758 465.037v16.8c-0.09 55.581-52.531 101.081-116.416 101.081-64.604-0.148-116.975-45.63-116.885-101.219v-16.8c-0.087 55.588 52.284 101.067 116.885 101.218 63.885-0.001 116.326-45.501 116.416-101.08z" fill="#529FBD" /><path d="M628.758 465.037v16.8a89.925 89.925 0 0 1-0.172 5.363v-16.8c0.109-1.776 0.169-3.565 0.172-5.363M628.586 470.4v16.8c-1.265 20.222-9.458 38.919-22.531 54.324v-16.8c13.075-15.404 21.266-34.102 22.531-54.324" fill="#529FBD" /><path d="M606.058 524.724v16.8c-7.05 8.312-15.522 15.663-25.093 21.772v-16.8c9.57-6.112 18.04-13.464 25.093-21.772M580.965 546.496v16.8c-7.302 4.664-15.244 8.609-23.685 11.71v-16.8c8.441-3.098 16.383-7.042 23.685-11.71M557.28 558.209v16.8a128.483 128.483 0 0 1-26.98 6.693v-16.8a128.483 128.483 0 0 0 26.98-6.693M530.297 564.902v16.8c-5.859 0.8-11.855 1.215-17.955 1.215-64.604-0.148-116.976-45.63-116.885-101.219v-16.8c-0.087 55.588 52.284 101.067 116.885 101.218 6.103 0 12.098-0.414 17.955-1.214" fill="#529FBD" /><path d="M669.88 462.767v16.8c0 7.701-0.729 15.466-2.126 23.292-3.316 18.523-11.943 35.321-21.641 51.739-27.679 46.896-66.729 85.998-111.668 120.975-6.541 5.101-13.327 9.978-19.896 15.05-0.905 0.696-1.653 1.057-2.422 1.057-0.732 0-1.487-0.325-2.419-1.005-41.701-30.306-79.369-63.821-109.59-103.252-15.11-19.729-28.072-40.488-37.226-62.809-5.872-14.316-8.887-28.975-8.887-43.792v-16.8c0 14.818 3.012 29.478 8.887 43.792 9.153 22.321 22.116 43.08 37.226 62.808 30.221 39.432 67.889 72.946 109.59 103.253 0.93 0.677 1.683 1.005 2.419 1.005 0.769 0 1.517-0.36 2.422-1.057 6.569-5.072 13.355-9.949 19.896-15.05 44.938-34.977 83.985-74.078 111.668-120.975 9.697-16.42 18.324-33.215 21.641-51.74 1.4-7.826 2.126-15.59 2.126-23.291z" fill="#529FBD" /><path d="M669.88 462.767v16.8c0 2.5-0.077 5.007-0.227 7.52v-16.8c0.152-2.514 0.227-5.021 0.227-7.52M669.653 470.287v16.8a137.169 137.169 0 0 1-1.896 15.772c-3.316 18.523-11.943 35.321-21.641 51.739-10.231 17.334-22.015 33.601-35.074 48.989v-16.8c13.06-15.389 24.843-31.656 35.074-48.989 9.697-16.42 18.324-33.215 21.641-51.74a135.81 135.81 0 0 0 1.896-15.771M611.042 586.787v16.8c-22.275 26.246-48.269 49.934-76.594 71.985-6.541 5.101-13.327 9.978-19.896 15.05a7.738 7.738 0 0 1-0.618 0.439V674.26c0.202-0.127 0.404-0.273 0.618-0.438 6.569-5.072 13.355-9.949 19.896-15.05 28.328-22.051 54.319-45.739 76.594-71.985M513.934 674.261v16.801c-0.301 0.191-0.591 0.34-0.87 0.441v-16.8a4.52 4.52 0 0 0 0.87-0.442M513.063 674.705v16.801a2.545 2.545 0 0 1-0.596 0.151v-16.8a2.95 2.95 0 0 0 0.596-0.152" fill="#529FBD" /><path d="M512.468 674.857v16.8a2.511 2.511 0 0 1-0.335 0.021c-0.733 0-1.487-0.325-2.42-1.005-41.701-30.306-79.369-63.821-109.589-103.252-15.11-19.729-28.073-40.488-37.226-62.809-5.872-14.316-8.885-28.975-8.885-43.792v-16.8c0 14.818 3.011 29.478 8.885 43.792 9.153 22.321 22.116 43.08 37.226 62.808 30.22 39.432 67.889 72.946 109.589 103.253 0.93 0.677 1.685 1.005 2.42 1.005 0.112 0.001 0.222-0.006 0.335-0.021" fill="#529FBD" /><path d="M680.7 399.784c13.598 26.869 17.88 54.848 13.818 84.032-3.762 27-16.632 50.936-31.369 74.332-21.742 34.501-49.875 64.843-81.557 92.821-18.729 16.536-38.677 31.917-59.421 46.527-3.541 2.493-6.827 3.752-10.08 3.752-3.064 0-6.098-1.113-9.305-3.356-43.211-30.327-82.675-63.821-114.972-103.22-22.063-26.92-41.445-55.268-52.164-87.18-12.75-38.001-9.604-75.37 9.93-111.345 19.928-36.698 51.751-62.992 94.459-79.342 16.844-6.451 34.586-10.345 52.94-12.029 1.359 0.002 1.952-0.067 2.188-0.82h31.369c7.089 1.029 14.212 1.876 21.263 3.108 31.597 5.516 59.65 17.424 84.104 35.609 21.268 15.821 37.558 34.886 48.797 57.111z m-12.943 86.274c4.193-23.463 2.349-46.396-7.032-68.69-23.155-55-82.01-90.928-148.563-90.928-21.378 0.069-42.041 3.273-61.423 10.843-51.61 20.129-83.352 54.306-94.046 102.554-5.105 23.019-2.842 45.907 6.208 67.977 9.153 22.32 22.116 43.08 37.226 62.809 30.22 39.431 67.889 72.946 109.59 103.253 0.931 0.677 1.684 1.005 2.418 1.005 0.771 0 1.518-0.36 2.422-1.058 6.569-5.072 13.355-9.948 19.897-15.05 44.938-34.977 83.986-74.078 111.667-120.974 9.691-16.421 18.319-33.216 21.636-51.741" fill="#58AED0" /><path d="M511.962 363.818c64.452 0.105 116.897 45.638 116.799 101.219-0.09 55.58-52.531 101.08-116.416 101.08-64.602-0.147-116.975-45.63-116.885-101.218 0.078-55.614 52.515-101.08 116.502-101.081z m1.033 179.822c48.435 0 88.778-34.644 89.776-77.449 1.021-43.273-39.11-78.958-89.822-79.876-0.612-0.011-1.224-0.017-1.835-0.017-48.532 0.001-88.736 34.791-89.712 78.04-0.967 42.819 39.614 78.542 90.076 79.29 0.509 0.011 1.01 0.012 1.517 0.012" fill="#90C7D7" /><path d="M660.72 417.365c9.385 22.296 11.23 45.227 7.036 68.69-3.317 18.524-11.944 35.321-21.642 51.739-27.679 46.896-66.729 85.998-111.668 120.975-6.54 5.101-13.327 9.978-19.896 15.05-0.905 0.696-1.652 1.057-2.421 1.057-0.733 0-1.488-0.325-2.42-1.005-41.701-30.306-79.37-63.821-109.59-103.252-15.11-19.729-28.072-40.488-37.226-62.809-9.051-22.069-11.31-44.956-6.211-67.977 10.697-48.248 42.439-82.425 94.049-102.555 19.384-7.569 40.045-10.773 61.327-10.843 66.654 0.003 125.508 35.931 148.662 90.93zM512.011 566.116c64.215 0 116.657-45.5 116.75-101.079 0.099-55.583-52.349-101.115-116.579-101.22-64.207 0.001-116.643 45.467-116.725 101.081-0.091 55.59 52.284 101.071 116.554 101.218" fill="#7AC0D6" /><path d="M695.988 463.007v16.8c0 6.867-0.494 13.803-1.47 20.809-3.762 26.999-16.632 50.936-31.369 74.331-21.742 34.501-49.875 64.843-81.557 92.821-18.729 16.536-38.677 31.917-59.421 46.528-3.541 2.492-6.827 3.751-10.08 3.751-3.064 0-6.098-1.112-9.305-3.356-43.211-30.327-82.675-63.821-114.972-103.22-22.063-26.92-41.445-55.268-52.164-87.18-5.082-15.147-7.639-30.193-7.639-45.091v-16.8c0 14.898 2.557 29.946 7.639 45.091 10.716 31.916 30.1 60.26 52.164 87.18 32.297 39.398 71.761 72.89 114.972 103.22 3.205 2.245 6.241 3.356 9.305 3.356 3.253 0 6.539-1.257 10.08-3.752 20.744-14.612 40.691-29.994 59.421-46.527 31.682-27.976 59.814-58.32 81.557-92.821 14.737-23.396 27.61-47.332 31.369-74.332 0.976-7.004 1.47-13.94 1.47-20.808z" fill="#529FBD" /><path d="M695.988 463.007v16.8c0 2.908-0.088 5.83-0.263 8.766v-16.8c0.175-2.936 0.263-5.857 0.263-8.766M695.725 471.771v16.8a157.295 157.295 0 0 1-1.206 12.045c-3.762 26.999-16.632 50.936-31.369 74.331-9.102 14.443-19.323 28.157-30.458 41.274V599.42c11.135-13.116 21.356-26.831 30.458-41.273 14.737-23.396 27.61-47.332 31.369-74.332a156.17 156.17 0 0 0 1.206-12.044M632.691 599.421v16.801c-15.462 18.216-32.68 35.281-51.099 51.547-18.729 16.533-38.677 31.914-59.421 46.525-0.376 0.264-0.749 0.516-1.119 0.752v-16.8a30.88 30.88 0 0 0 1.119-0.752c20.744-14.613 40.691-29.995 59.421-46.525 18.42-16.266 35.637-33.331 51.099-51.548" fill="#529FBD" /><path d="M521.053 698.248v16.801c-1.411 0.9-2.782 1.601-4.134 2.097v-16.8c1.352-0.496 2.723-1.197 4.134-2.098M516.919 700.346v16.8a14.556 14.556 0 0 1-3.09 0.783v-16.8c1.022-0.14 2.051-0.4 3.09-0.783M513.829 701.129v16.8c-0.582 0.082-1.162 0.119-1.737 0.119-3.064 0-6.098-1.112-9.305-3.356-43.211-30.327-82.675-63.821-114.972-103.22-22.063-26.92-41.445-55.268-52.164-87.18-5.082-15.147-7.639-30.193-7.639-45.091v-16.8c0 14.898 2.557 29.946 7.639 45.091 10.716 31.916 30.1 60.26 52.164 87.18 32.297 39.398 71.761 72.89 114.972 103.22 3.205 2.245 6.241 3.356 9.305 3.356 0.575 0 1.155-0.04 1.737-0.119" fill="#529FBD" /></svg>